<?xml version="1.0" standalone="no"?><!DOCTYPE svg PUBLIC "-//W3C//DTD SVG 1.1//EN" "http://www.w3.org/Graphics/SVG/1.1/DTD/svg11.dtd"><svg t="1641370648342" class="icon" viewBox="0 0 1024 1024" version="1.1" xmlns="http://www.w3.org/2000/svg" p-id="6691" xmlns:xlink="http://www.w3.org/1999/xlink" width="64" height="64"><defs><style type="text/css"></style></defs><path d="M251.6 297.2c0 136.8 110.8 248 248 248 136.8 0 248-110.8 248-248 0-136.8-110.8-248-248-248s-248 111.2-248 248z m0 0" fill="#1afa29" p-id="6692"></path><path d="M738.8 543.6c-19.6-15.6-47.6-14-66 4.4-44.8 44.8-106.4 72.8-175.2 72.8-68.8 0-130.4-28-175.2-72.8-18.4-18.4-46.4-21.2-66-4.4C181.6 608 125.6 690.4 107.2 804c-7.2 46.4 25.2 84 72.8 84h640c46.4 0 80-38 72.8-84-19.6-113.6-75.6-196-154-260.4z m0 0" fill="#1afa29" p-id="6693"></path><path d="M696 732m-224 0a224 224 0 1 0 448 0 224 224 0 1 0-448 0Z" fill="#1afa29" p-id="6694"></path><path d="M627.6 748.4c16 16 38.8 22 60.4 16.4 21.6-5.6 38.4-22.8 44.4-44.4 5.6-21.6-0.4-44.8-16.4-60.4-16-16-38.8-22-60.4-16.4-21.6 5.6-38.4 22.8-44.4 44.4-5.6 21.6 0.8 44.4 16.4 60.4z m0 0" fill="#1afa29" p-id="6695"></path><path d="M698 536c-107.2 0-194 86.8-194 194s86.8 194 194 194 194-86.8 194-194-86.8-194-194-194z m110.4 302l-2.4 2.4c-4.8 4.8-12 4.8-16.8 0L724 775.2c-34.4 25.2-82.8 22-113.6-8.8-34-34-34-90 0-124s90-34 124 0c30.8 30.8 34 79.6 8.8 113.6l65.2 65.2c4.4 4.4 4.4 12 0 16.8z m0 0" fill="#1afa29" p-id="6696"></path></svg>